HIERARCHY
ROOT Hips
{
	OFFSET 0.000000 0.000000 0.000000
	CHANNELS 6 Xposition Yposition Zposition Zrotation Yrotation Xrotation 
	JOINT LeftUpLeg_virtual
	{
		OFFSET 0.000000 0.000000 0.000000
		CHANNELS 3 Zrotation Yrotation Xrotation
		JOINT LeftUpLeg
		{
			OFFSET 10.205400 -3.823500 0.155100
			CHANNELS 3 Zrotation Yrotation Xrotation
			JOINT LeftLeg
			{
				OFFSET 0.708757 -12.982077 0.567790
				CHANNELS 3 Zrotation Yrotation Xrotation
				JOINT LeftFoot
				{
					OFFSET -0.708756 -10.717838 -2.184338
					CHANNELS 3 Zrotation Yrotation Xrotation
					JOINT LeftToeBase
					{
						OFFSET 0.108149 -7.191104 7.560241
						CHANNELS 3 Zrotation Yrotation Xrotation
						End Site
						{
							OFFSET 0.000000 0.000000 0.000000
						}
					}
				}
			}
		}
	}
	JOINT RightUpLeg_virtual
	{
		OFFSET 0.000000 0.000000 0.000000
		CHANNELS 3 Zrotation Yrotation Xrotation
		JOINT RightUpLeg
		{
			OFFSET -10.205400 -3.823500 0.005500
			CHANNELS 3 Zrotation Yrotation Xrotation
			JOINT RightLeg
			{
				OFFSET -0.708756 -12.982134 0.610632
				CHANNELS 3 Zrotation Yrotation Xrotation
				JOINT RightFoot
				{
					OFFSET 0.708754 -10.717769 -1.945823
					CHANNELS 3 Zrotation Yrotation Xrotation
					JOINT RightToeBase
					{
						OFFSET -0.108140 -7.191069 7.372968
						CHANNELS 3 Zrotation Yrotation Xrotation
						End Site
						{
							OFFSET 0.000000 0.000000 0.000000
						}
					}
				}
			}
		}
	}
	JOINT Spine_virtual
	{
		OFFSET 0.000000 0.000000 0.000000
		CHANNELS 3 Zrotation Yrotation Xrotation
		JOINT Spine
		{
			OFFSET 0.000000 6.876099 0.125700
			CHANNELS 3 Zrotation Yrotation Xrotation
			JOINT Spine1
			{
				OFFSET 0.000000 8.022060 0.146608
				CHANNELS 3 Zrotation Yrotation Xrotation
				JOINT Spine2
				{
					OFFSET 0.000000 9.168068 0.167552
					CHANNELS 3 Zrotation Yrotation Xrotation
					JOINT Neck_virtual
					{
						OFFSET 0.000000 0.000000 0.000000
						CHANNELS 3 Zrotation Yrotation Xrotation
						JOINT Neck
						{
							OFFSET 0.000000 10.314075 0.188496
							CHANNELS 3 Zrotation Yrotation Xrotation
							JOINT Head
							{
								OFFSET 0.000000 7.643700 -2.377400
								CHANNELS 3 Zrotation Yrotation Xrotation
								End Site
								{
									OFFSET 0.000000 0.000000 0.000000
								}
							}
						}
					}
					JOINT LeftShoulder_virtual
					{
						OFFSET 0.000000 0.000000 0.000000
						CHANNELS 3 Zrotation Yrotation Xrotation
						JOINT LeftShoulder
						{
							OFFSET 4.392200 8.824978 0.174984
							CHANNELS 3 Zrotation Yrotation Xrotation
							JOINT LeftArm
							{
								OFFSET 8.771219 -2.981674 -0.026999
								CHANNELS 3 Zrotation Yrotation Xrotation
								JOINT LeftForeArm
								{
									OFFSET 8.512804 0.000000 -0.000000
									CHANNELS 3 Zrotation Yrotation Xrotation
									JOINT LeftHand
									{
										OFFSET 18.484802 0.000000 -0.000000
										CHANNELS 3 Zrotation Yrotation Xrotation
										End Site
										{
											OFFSET 0.000000 0.000000 0.000000
										}
									}
								}
							}
						}
					}
					JOINT RightShoulder_virtual
					{
						OFFSET 0.000000 0.000000 0.000000
						CHANNELS 3 Zrotation Yrotation Xrotation
						JOINT RightShoulder
						{
							OFFSET -4.392200 8.824993 0.141379
							CHANNELS 3 Zrotation Yrotation Xrotation
							JOINT RightArm
							{
								OFFSET -8.771282 -2.981682 -0.094208
								CHANNELS 3 Zrotation Yrotation Xrotation
								JOINT RightForeArm
								{
									OFFSET -8.494598 0.000000 0.000000
									CHANNELS 3 Zrotation Yrotation Xrotation
									JOINT RightHand
									{
										OFFSET -18.483803 0.000000 0.000001
										CHANNELS 3 Zrotation Yrotation Xrotation
										End Site
										{
											OFFSET 0.000000 0.000000 0.000000
										}
									}
								}
							}
						}
					}
				}
			}
		}
	}
}
MOTION
Frames: 5
Frame Time: 0.033333
0.039040 31.753036 4.887462 178.874117 6.736559 -179.222074 -0.439355 -5.923259 16.804398 -0.085355 5.571252 -62.040760 9.162724 -1.729218 54.408454 -6.755220 2.509158 4.718608 0.000000 0.000000 0.000000 4.748508 -4.946545 12.489698 -0.627284 -3.560700 -55.718795 0.744754 -1.232452 46.879164 1.727635 5.767290 3.864530 0.000000 0.000000 0.000000 1.972111 -4.077776 24.264206 -2.711074 2.054531 18.403830 -0.326866 -0.849623 2.825559 0.085685 -0.249903 0.130757 -0.140328 -0.055832 6.029590 -3.064088 2.741533 -4.436826 0.000000 0.000000 0.000000 0.476365 0.844362 2.445199 -5.675477 -11.617388 1.911061 -52.085817 -3.148294 8.695483 70.710025 -88.778587 -53.210097 0.000000 0.000000 0.000000 -2.395950 2.029316 1.704582 13.235136 6.902354 -0.098597 46.081927 18.466239 5.134279 -18.521624 79.445660 -22.592297 0.000000 0.000000 0.000000 
0.183177 32.543537 4.159814 178.980449 6.753139 -178.903022 -0.407907 -5.570772 16.096999 0.135840 5.289518 -57.962379 9.025948 -1.589055 50.679259 -6.181404 2.546820 6.200887 0.000000 0.000000 0.000000 4.861470 -4.508784 11.653655 -0.397029 -3.439865 -50.988735 0.408908 -0.795729 42.762121 2.376566 5.010687 4.742691 0.000000 0.000000 0.000000 2.489416 -3.845217 21.948985 -2.305456 2.001506 16.689069 -0.314740 -0.888222 2.902213 0.029380 -0.133888 0.150026 -0.117770 -0.233275 6.108852 -2.860469 1.986207 -3.105745 0.000000 0.000000 0.000000 0.525566 0.628739 2.696494 -5.007465 -11.817799 1.508039 -51.909953 -5.091503 9.630189 140.844634 -88.113422 -122.926166 0.000000 0.000000 0.000000 -2.392599 1.752606 1.859537 13.083454 7.296537 -0.419082 45.586469 19.322074 6.165201 -21.975208 82.273433 -26.556925 0.000000 0.000000 0.000000 
0.312245 33.276527 3.357105 179.083120 6.743409 -178.769628 -0.461809 -5.161355 15.320797 0.459362 4.980417 -53.691837 8.873575 -1.434805 47.321992 -5.554954 2.456448 7.680742 0.000000 0.000000 0.000000 4.966038 -4.055552 10.422069 -0.196332 -3.411626 -45.684567 0.062241 -0.369332 39.018169 2.947530 4.267756 5.478905 0.000000 0.000000 0.000000 2.889686 -3.493073 19.350208 -1.970050 1.877393 14.836832 -0.273884 -1.091497 2.944995 0.051818 -0.145233 0.162539 -0.168269 -0.454754 6.115518 -2.516949 1.508004 -1.597494 0.000000 0.000000 0.000000 0.531094 0.574611 2.723123 -4.343536 -11.963674 1.339805 -51.734318 -7.567960 10.589282 154.769355 -87.098087 -136.401664 0.000000 0.000000 0.000000 -2.428171 1.748161 2.001649 13.004328 7.781105 -0.585716 45.146622 20.091358 7.179029 -28.009354 84.440283 -33.343921 0.000000 0.000000 0.000000 
0.448623 33.935883 2.517330 179.178839 6.679715 -178.709113 -0.566287 -4.768681 14.544321 0.848275 4.661967 -49.466689 8.713955 -1.275165 44.119327 -4.922508 2.244277 8.975332 0.000000 0.000000 0.000000 5.132993 -3.597137 9.614282 -0.073023 -3.474857 -41.113279 -0.337962 0.108445 35.838095 3.339083 3.495001 6.166529 0.000000 0.000000 0.000000 3.190196 -3.165536 16.539617 -1.695866 1.840725 12.946493 -0.184141 -1.140036 3.052161 0.075345 -0.207241 0.112454 -0.149860 -0.359592 6.163403 -2.358891 0.987073 0.133494 0.000000 0.000000 0.000000 0.643568 0.438282 2.805188 -3.673181 -12.219465 1.176100 -51.924806 -10.084164 12.003971 155.155315 -86.398369 -136.649778 0.000000 0.000000 0.000000 -2.454990 1.670523 2.086237 13.088565 8.157459 -0.668712 44.868831 20.320025 7.750952 -38.900069 86.235633 -45.021407 0.000000 0.000000 0.000000 
0.586567 34.513058 1.612294 179.263342 6.711303 -178.663132 -0.690891 -4.404012 13.854528 1.280485 4.382666 -45.470099 8.540329 -1.136016 41.180512 -4.407772 1.978395 10.162139 0.000000 0.000000 0.000000 5.396408 -3.281440 9.420107 0.056993 -3.767500 -37.887240 -0.786511 0.651257 33.689727 3.539094 2.704113 6.812521 0.000000 0.000000 0.000000 3.428725 -2.824645 13.691498 -1.565524 1.740992 10.955881 -0.117339 -1.349486 3.177897 0.070736 -0.114085 0.121018 -0.121820 -0.575408 6.332098 -2.111782 0.667359 2.109070 0.000000 0.000000 0.000000 0.798416 0.364549 2.960700 -3.003438 -12.378973 0.931201 -52.226355 -12.418571 13.587221 153.615818 -86.154681 -134.943829 0.000000 0.000000 0.000000 -2.372497 1.580871 2.292884 13.284592 8.235617 -1.146203 44.975512 19.767800 8.303816 -63.701671 87.804561 -70.674426 0.000000 0.000000 0.000000 
